G75*
%MOIN*%
%OFA0B0*%
%FSLAX25Y25*%
%IPPOS*%
%LPD*%
%AMOC8*
5,1,8,0,0,1.08239X$1,22.5*
%
%ADD10R,0.02965X0.01784*%
%ADD11R,0.04737X0.07493*%
%ADD12C,0.01942*%
%ADD13C,0.07887*%
%ADD14C,0.05524*%
%ADD15C,0.01421*%
%ADD16R,0.03800X0.06800*%
D10*
X0207600Y0066100D03*
X0207600Y0068069D03*
X0207600Y0070037D03*
X0207600Y0072006D03*
X0216852Y0072006D03*
X0216852Y0070037D03*
X0216852Y0068069D03*
X0216852Y0066100D03*
D11*
X0212226Y0069053D03*
D12*
X0053069Y0068069D03*
X0051100Y0068069D03*
X0049131Y0068069D03*
X0049131Y0066100D03*
X0049131Y0064131D03*
X0051100Y0064131D03*
X0053069Y0064131D03*
X0053069Y0066100D03*
D13*
X0079486Y0046100D03*
X0087360Y0046100D03*
X0095234Y0046100D03*
X0103108Y0046100D03*
X0110982Y0046100D03*
X0118856Y0046100D03*
X0126730Y0046100D03*
X0134604Y0046100D03*
X0142478Y0046100D03*
X0150352Y0046100D03*
X0158226Y0046100D03*
X0166100Y0046100D03*
D14*
X0043600Y0023600D03*
X0043600Y0103600D03*
X0203600Y0103600D03*
X0203600Y0023600D03*
D15*
X0187758Y0064805D02*
X0184442Y0064805D01*
X0187758Y0064805D02*
X0187758Y0061489D01*
X0184442Y0061489D01*
X0184442Y0064805D01*
X0184442Y0062909D02*
X0187758Y0062909D01*
X0187758Y0064329D02*
X0184442Y0064329D01*
X0184442Y0071711D02*
X0187758Y0071711D01*
X0187758Y0068395D01*
X0184442Y0068395D01*
X0184442Y0071711D01*
X0184442Y0069815D02*
X0187758Y0069815D01*
X0187758Y0071235D02*
X0184442Y0071235D01*
D16*
X0027600Y0074600D03*
X0012600Y0074600D03*
X0012600Y0052600D03*
X0027600Y0052600D03*
M02*
