G75*
%MOIN*%
%OFA0B0*%
%FSLAX25Y25*%
%IPPOS*%
%LPD*%
%AMOC8*
5,1,8,0,0,1.08239X$1,22.5*
%
%ADD10R,0.09461X0.03162*%
%ADD11R,0.04737X0.05131*%
%ADD12C,0.07887*%
%ADD13R,0.04343X0.03556*%
%ADD14R,0.06800X0.12800*%
%ADD15C,0.05524*%
%ADD16R,0.05800X0.03800*%
%ADD17R,0.10500X0.10000*%
%ADD18R,0.03556X0.04343*%
%ADD19R,0.22454X0.04737*%
%ADD20R,0.12611X0.07099*%
%ADD21R,0.05131X0.04737*%
D10*
X0095864Y0060600D03*
X0095864Y0065600D03*
X0095864Y0070600D03*
X0095864Y0075600D03*
X0116336Y0075600D03*
X0116336Y0070600D03*
X0116336Y0065600D03*
X0116336Y0060600D03*
D11*
X0128100Y0077754D03*
X0137600Y0077754D03*
X0148600Y0077754D03*
X0158600Y0077754D03*
X0158600Y0084446D03*
X0148600Y0084446D03*
X0137600Y0084446D03*
X0128100Y0084446D03*
X0168600Y0084446D03*
X0178600Y0084446D03*
X0178600Y0077754D03*
X0168600Y0077754D03*
X0084100Y0076446D03*
X0084100Y0069754D03*
X0029700Y0035646D03*
X0024800Y0035646D03*
X0024800Y0028954D03*
X0029700Y0028954D03*
D12*
X0079486Y0046100D03*
X0087360Y0046100D03*
X0095234Y0046100D03*
X0103108Y0046100D03*
X0110982Y0046100D03*
X0118856Y0046100D03*
X0126730Y0046100D03*
X0134604Y0046100D03*
X0142478Y0046100D03*
X0150352Y0046100D03*
X0158226Y0046100D03*
X0166100Y0046100D03*
D13*
X0169100Y0056041D03*
X0161600Y0056041D03*
X0161600Y0061159D03*
X0161600Y0065041D03*
X0169100Y0065041D03*
X0169100Y0061159D03*
X0169100Y0070159D03*
X0161600Y0070159D03*
X0152600Y0070159D03*
X0152600Y0065041D03*
X0152600Y0061159D03*
X0152600Y0056041D03*
X0143100Y0056041D03*
X0143100Y0061159D03*
X0143100Y0065041D03*
X0143100Y0070159D03*
X0186100Y0069159D03*
X0186100Y0064041D03*
D14*
X0038600Y0015100D03*
X0048600Y0015100D03*
X0058600Y0015100D03*
X0068600Y0015100D03*
X0078600Y0015100D03*
X0088600Y0015100D03*
X0098600Y0015100D03*
X0108600Y0015100D03*
X0118600Y0015100D03*
X0128600Y0015100D03*
X0138600Y0015100D03*
X0148600Y0015100D03*
X0158600Y0015100D03*
X0168600Y0015100D03*
X0178600Y0015100D03*
X0188600Y0015100D03*
X0198600Y0015100D03*
X0208600Y0015100D03*
X0208600Y0032100D03*
X0198600Y0032100D03*
X0188600Y0032100D03*
X0178600Y0032100D03*
X0168600Y0032100D03*
X0158600Y0032100D03*
X0148600Y0032100D03*
X0138600Y0032100D03*
X0128600Y0032100D03*
X0118600Y0032100D03*
X0108600Y0032100D03*
X0098600Y0032100D03*
X0088600Y0032100D03*
X0078600Y0032100D03*
X0068600Y0032100D03*
X0058600Y0032100D03*
X0048600Y0032100D03*
X0038600Y0032100D03*
X0038600Y0095100D03*
X0048600Y0095100D03*
X0058600Y0095100D03*
X0068600Y0095100D03*
X0078600Y0095100D03*
X0088600Y0095100D03*
X0098600Y0095100D03*
X0108600Y0095100D03*
X0118600Y0095100D03*
X0128600Y0095100D03*
X0138600Y0095100D03*
X0148600Y0095100D03*
X0158600Y0095100D03*
X0168600Y0095100D03*
X0178600Y0095100D03*
X0188600Y0095100D03*
X0198600Y0095100D03*
X0208600Y0095100D03*
X0208600Y0112100D03*
X0198600Y0112100D03*
X0188600Y0112100D03*
X0178600Y0112100D03*
X0168600Y0112100D03*
X0158600Y0112100D03*
X0148600Y0112100D03*
X0138600Y0112100D03*
X0128600Y0112100D03*
X0118600Y0112100D03*
X0108600Y0112100D03*
X0098600Y0112100D03*
X0088600Y0112100D03*
X0078600Y0112100D03*
X0068600Y0112100D03*
X0058600Y0112100D03*
X0048600Y0112100D03*
X0038600Y0112100D03*
D15*
X0043600Y0103600D03*
X0043600Y0023600D03*
X0203600Y0023600D03*
X0203600Y0103600D03*
D16*
X0023600Y0089350D03*
D17*
X0023600Y0098600D03*
D18*
X0033141Y0047000D03*
X0038259Y0047000D03*
X0179041Y0047100D03*
X0184159Y0047100D03*
X0184159Y0055900D03*
X0179041Y0055900D03*
D19*
X0022374Y0059663D03*
X0022374Y0067537D03*
D20*
X0013437Y0076986D03*
X0013437Y0050214D03*
D21*
X0036754Y0084600D03*
X0043446Y0084600D03*
X0051654Y0084600D03*
X0058346Y0084600D03*
X0218254Y0040400D03*
X0224946Y0040400D03*
M02*
