%
M48
M72
T01C0.01181
T02C0.01500
T03C0.01575
T04C0.02362
T05C0.04724
%
T01
X51100Y60100
X75300Y60100
X75200Y66100
X138600Y63600
X146852Y63600
X156100Y63600
X160100Y56100
X151100Y56100
X172100Y53600
X172100Y66600
X197600Y45600
X214600Y40600
X224600Y35600
X220600Y46600
X212100Y74600
T02
X57100Y72100
X51100Y72100
X45100Y72100
X45100Y66100
X45100Y60100
X57100Y60100
X57100Y66100
T03
X19900Y11000
X7400Y19000
X7900Y32000
X27600Y47100
X33400Y52500
X31900Y56000
X23900Y56000
X19900Y56000
X15900Y56000
X8900Y61000
X32900Y72500
X33400Y80000
X47400Y84500
X67900Y78500
X74900Y79500
X74900Y74500
X67900Y70000
X67900Y63500
X67900Y53000
X64900Y49000
X57400Y49000
X52000Y46000
X46900Y49000
X89600Y65600
X89600Y70600
X108400Y67500
X123700Y65600
X123400Y60500
X132900Y60500
X139400Y56000
X132900Y66000
X142900Y74000
X153400Y74000
X163400Y74000
X177900Y72000
X181400Y65500
X187100Y59200
X175100Y49100
X175100Y44100
X178600Y40600
X184600Y38600
X194300Y38500
X208600Y39600
X224400Y29000
X231400Y23500
X224400Y18000
X229400Y40500
X173600Y84600
X188600Y87600
X193500Y87500
X224400Y104000
X154600Y85600
X142600Y82600
X133600Y83600
X118600Y80600
X86900Y83000
X25900Y113000
X10400Y107500
X10400Y94500
T04
X84100Y64700
X84100Y60200
X107100Y59900
X72500Y40800
X22100Y52600
X22100Y23800
T05
X43600Y23600
X79486Y46100
X87360Y46100
X95234Y46100
X103108Y46100
X110982Y46100
X118856Y46100
X126730Y46100
X134604Y46100
X142478Y46100
X150352Y46100
X158226Y46100
X166100Y46100
X203600Y23600
X203600Y103600
X43600Y103600
M30
